<?xml version="1.0" encoding="UTF-8"?>
<svg version="1.1" xmlns="http://www.w3.org/2000/svg" width="600" height="600">
<path d="M0 0 C1.54301494 -0.00258642 3.08602921 -0.00560035 4.62904257 -0.0090034 C8.85760212 -0.01704416 13.08614468 -0.01886134 17.31471097 -0.01960087 C21.88000336 -0.02145653 26.44528703 -0.02900644 31.01057434 -0.03573608 C40.98806108 -0.04929914 50.9655438 -0.05534096 60.94303823 -0.05974674 C67.17724076 -0.0625126 73.41144175 -0.06675058 79.64564323 -0.07125092 C96.91846272 -0.08344094 114.19128096 -0.09374078 131.46410465 -0.09712601 C132.56890447 -0.09734557 133.67370429 -0.09756514 134.8119829 -0.09779136 C135.9193717 -0.09800964 137.02676051 -0.09822791 138.16770655 -0.09845281 C140.41156328 -0.09889627 142.65542001 -0.09934283 144.89927673 -0.09979248 C146.56880954 -0.10012463 146.56880954 -0.10012463 148.27207028 -0.10046348 C166.29982244 -0.10441001 184.32753415 -0.12186082 202.35527069 -0.145152 C220.87989128 -0.16889126 239.40449159 -0.18132903 257.92912763 -0.18249393 C268.32362443 -0.18340924 278.7180685 -0.1891253 289.11255074 -0.20731354 C297.96495559 -0.22274928 306.81729142 -0.22781453 315.66970719 -0.21957543 C320.18194182 -0.21568122 324.6940376 -0.21653817 329.20625496 -0.23063278 C333.34619746 -0.24344566 337.48589784 -0.24211006 341.62584036 -0.23004207 C343.11442049 -0.22809778 344.60301823 -0.23110405 346.09157372 -0.23988643 C359.11183597 -0.31177105 371.41657921 1.56549382 383.77745056 5.76544189 C384.52156189 6.01777588 385.26567322 6.27010986 386.03233337 6.53009033 C418.12027543 17.91176864 445.09774026 42.92787301 459.99766541 73.37872314 C468.17185108 91.17308384 472.21793917 108.99581699 472.16314697 128.55406189 C472.16617236 130.09482963 472.17006377 131.63559586 472.17473954 133.17635947 C472.1849787 137.38483159 472.18284817 141.59321813 472.17855895 145.80169713 C472.17608423 150.35060049 472.18511521 154.89948364 472.19259644 159.44837952 C472.20532549 168.35105256 472.2071393 177.25369542 472.20479617 186.15637603 C472.20301058 193.39663602 472.20476783 200.63688687 472.20902061 207.87714577 C472.2096158 208.90902092 472.21021099 209.94089606 472.21082422 211.00404016 C472.21203602 213.10056958 472.21325015 215.19709901 472.21446659 217.29362843 C472.22533556 236.94215901 472.22318289 256.59067242 472.21708175 276.23920397 C472.21191512 294.19172777 472.22316248 312.14419728 472.24217997 330.09671035 C472.26157991 348.55250351 472.26981046 367.00827101 472.26605672 385.46407443 C472.26414769 395.81663571 472.2666029 406.16915079 472.28077126 416.52170372 C472.29271364 425.33668264 472.2940581 434.15158694 472.28198109 442.96656694 C472.27611197 447.45869014 472.2749381 451.95067705 472.28698349 456.44279099 C472.29790897 460.56540157 472.29466066 464.68776318 472.28072181 468.81036244 C472.27809304 470.29146588 472.28038325 471.77258927 472.28845767 473.25367304 C472.35481256 486.34749288 470.83904543 499.30035387 466.21495056 511.64044189 C465.96148865 512.33419922 465.70802673 513.02795654 465.44688416 513.74273682 C458.69183353 531.66367946 448.59700314 546.89027848 435.90245056 561.14044189 C435.01106384 562.14204346 435.01106384 562.14204346 434.10166931 563.16387939 C414.79784335 583.56941255 384.05910712 599.39050424 355.72278488 600.23522997 C351.75000188 600.27544777 347.77782172 600.28355146 343.80490112 600.28088379 C342.26188618 600.28347021 340.71887191 600.28648414 339.17585856 600.28988719 C334.947299 600.29792795 330.71875644 600.29974513 326.49019015 600.30048466 C321.92489776 600.30234032 317.3596141 600.30989023 312.79432678 600.31661987 C302.81684004 600.33018293 292.83935732 600.33622475 282.8618629 600.34063053 C276.62766037 600.34339639 270.39345938 600.34763436 264.15925789 600.3521347 C246.88643841 600.36432472 229.61362016 600.37462456 212.34079647 600.3780098 C210.68359674 600.37833915 210.68359674 600.37833915 208.99291823 600.37867515 C207.88552942 600.37889343 206.77814062 600.3791117 205.63719457 600.3793366 C203.39333785 600.37978006 201.14948112 600.38022662 198.90562439 600.38067627 C197.23609158 600.38100841 197.23609158 600.38100841 195.53283084 600.38134727 C177.50507868 600.3852938 159.47736697 600.40274461 141.44963043 600.42603579 C122.92500984 600.44977504 104.40040953 600.46221282 85.87577349 600.46337771 C75.48127669 600.46429303 65.08683262 600.47000909 54.69235039 600.48819733 C45.83994553 600.50363307 36.9876097 600.50869832 28.13519394 600.50045922 C23.6229593 600.49656501 19.11086352 600.49742196 14.59864616 600.51151657 C10.45870366 600.52432945 6.31900329 600.52299384 2.17906076 600.51092586 C0.69048063 600.50898157 -0.7981171 600.51198784 -2.2866726 600.52077022 C-15.30693484 600.59265484 -27.61167808 598.71538997 -39.97254944 594.51544189 C-41.08871643 594.13694092 -41.08871643 594.13694092 -42.22743225 593.75079346 C-74.31537431 582.36911515 -101.29283914 557.35301078 -116.19276428 526.90216064 C-124.36694996 509.10779995 -128.41303804 491.28506679 -128.35824585 471.7268219 C-128.36127123 470.18605416 -128.36516265 468.64528793 -128.36983842 467.10452431 C-128.38007758 462.8960522 -128.37794704 458.68766566 -128.37365782 454.47918665 C-128.3711831 449.9302833 -128.38021409 445.38140015 -128.38769531 440.83250427 C-128.40042437 431.92983123 -128.40223818 423.02718837 -128.39989505 414.12450776 C-128.39810946 406.88424777 -128.39986671 399.64399692 -128.40411949 392.40373802 C-128.40471468 391.37186287 -128.40530987 390.33998773 -128.40592309 389.27684363 C-128.4071349 387.18031421 -128.40834903 385.08378478 -128.40956547 382.98725536 C-128.42043444 363.33872478 -128.41828176 343.69021137 -128.41218062 324.04167982 C-128.407014 306.08915601 -128.41826135 288.13668651 -128.43727884 270.18417344 C-128.45667879 251.72838028 -128.46490934 233.27261278 -128.46115559 214.81680936 C-128.45924657 204.46424808 -128.46170178 194.111733 -128.47587013 183.75918007 C-128.48781252 174.94420115 -128.48915698 166.12929685 -128.47707997 157.31431685 C-128.47121085 152.82219365 -128.47003698 148.33020674 -128.48208237 143.8380928 C-128.49300785 139.71548222 -128.48975954 135.59312061 -128.47582068 131.47052135 C-128.47319191 129.98941791 -128.47548213 128.50829452 -128.48355655 127.02721075 C-128.54991143 113.93339091 -127.03414431 100.98052992 -122.41004944 88.64044189 C-122.15658752 87.94668457 -121.90312561 87.25292725 -121.64198303 86.53814697 C-114.88693241 68.61720433 -104.79210202 53.39060531 -92.09754944 39.14044189 C-91.50329163 38.47270752 -90.90903381 37.80497314 -90.29676819 37.11700439 C-66.82769424 12.30850439 -33.50983336 -0.02250066 0 0 Z " fill="#FDD902" transform="translate(128.09754943847656,-0.14044189453125)"/>
<path d="M0 0 C55.08529155 -0.16121214 55.08529155 -0.16121214 78.30664062 -0.1953125 C83.61108447 -0.20316496 88.91552787 -0.21122284 94.2199707 -0.21972656 C94.88461092 -0.22078156 95.54925114 -0.22183655 96.23403198 -0.22292352 C106.24273576 -0.23915402 116.25135016 -0.26726733 126.26000977 -0.30175781 C137.90541679 -0.34186919 149.55075449 -0.36749008 161.19622868 -0.37635398 C167.3513738 -0.38152792 173.50632073 -0.39352004 179.66140175 -0.42292023 C255.30678479 -0.76991141 255.30678479 -0.76991141 279 17 C279.73734375 17.53238281 280.4746875 18.06476563 281.234375 18.61328125 C290.24118318 25.7069892 294.92729614 36.93781646 297 48 C298.67216317 64.09726178 296.45648099 80.10022246 286 93 C280.34853947 99.2283582 273.9689368 103.28272319 266 106 C265.01 106 264.02 106 263 106 C263 106.66 263 107.32 263 108 C263.85078125 108.18949219 263.85078125 108.18949219 264.71875 108.3828125 C276.88723857 111.67497208 287.45479162 121.31703865 293.89453125 131.94921875 C299.71221772 142.74174666 300.2846903 152.47224118 300.1953125 164.4375 C300.19329834 165.74654297 300.19128418 167.05558594 300.18920898 168.40429688 C300.17878662 173.26956716 300.15086418 178.1347873 300.125 183 C300.08375 193.89 300.0425 204.78 300 216 C271.62 216 243.24 216 214 216 C213.8125 187 213.8125 187 213.79223633 177.88671875 C213.76577766 175.48695696 213.73749768 173.08721426 213.70703125 170.6875 C213.71101929 169.45451172 213.71500732 168.22152344 213.71911621 166.95117188 C213.60186624 159.82697743 213.03308084 154.35295041 208 149 C203.15733852 145.2931757 198.34718466 143.88976061 192.34295654 143.84178162 C191.41190094 143.8319928 190.48084534 143.82220398 189.52157593 143.81211853 C188.50737579 143.80636307 187.49317566 143.8006076 186.44824219 143.79467773 C185.37476532 143.78477814 184.30128845 143.77487854 183.19528198 143.76467896 C179.64583545 143.73308278 176.09637553 143.70831384 172.546875 143.68359375 C170.0863612 143.66302261 167.62585092 143.64202609 165.16534424 143.62062073 C158.68809867 143.56541665 152.21082129 143.51599996 145.73352051 143.46777344 C137.96246866 143.40871602 130.19147496 143.34249715 122.42047119 143.27747345 C110.61368296 143.17948487 98.8068575 143.09061435 87 143 C87 167.09 87 191.18 87 216 C58.29 216 29.58 216 0 216 C0 144.72 0 73.44 0 0 Z " fill="#010100" transform="translate(155,192)"/>
<path d="M0 0 C15.76867571 -0.13560115 31.53688722 -0.24605927 47.30597687 -0.31087303 C54.62835102 -0.34177121 61.95033638 -0.38387325 69.27246094 -0.45263672 C75.65673386 -0.51256391 82.04072513 -0.55117852 88.42527151 -0.56453097 C91.80395483 -0.57233265 95.18183262 -0.59058059 98.56025696 -0.63438034 C102.3381814 -0.6779941 106.11444207 -0.68393149 109.89257812 -0.68115234 C111.00460602 -0.702724 112.11663391 -0.72429565 113.26235962 -0.746521 C119.65691557 -0.69568632 123.509136 0.21115159 128.48033905 4.32082176 C132.30741024 8.54961678 132.54168308 12.71425492 132.453125 18.234375 C131.73048594 22.64496512 129.45385856 25.28285898 126 28 C122.85144869 29.88307669 120.53766476 30.24801989 116.88739014 30.24050903 C115.85536469 30.24325836 114.82333923 30.24600769 113.76004028 30.24884033 C112.63363129 30.24164978 111.50722229 30.23445923 110.34667969 30.22705078 C108.56090012 30.22748886 108.56090012 30.22748886 106.73904419 30.22793579 C103.4789857 30.2267817 100.2190992 30.2167554 96.95907497 30.20278788 C93.5504627 30.19028019 90.14184701 30.18910999 86.73321533 30.18673706 C80.28052674 30.1805224 73.82790597 30.16411179 67.37524724 30.14403808 C60.02826634 30.12167864 52.68128218 30.11068554 45.33427572 30.10064721 C30.2228065 30.07974553 15.11142535 30.04306948 0 30 C0 20.1 0 10.2 0 0 Z " fill="#F6D302" transform="translate(241,252)"/>
</svg>
